inDegrees=yes
name=ik_Shooting_orientations
DataType=double
version=3
OpenSimVersion=4.3-2021-08-27-4bc7ad9
endheader
time	pelvis_tilt	pelvis_list	pelvis_rotation	pelvis_tx	pelvis_ty	pelvis_tz	hip_flexion_r	hip_adduction_r	hip_rotation_r	knee_angle_r	knee_angle_r_beta	ankle_angle_r	subtalar_angle_r	mtp_angle_r	hip_flexion_l	hip_adduction_l	hip_rotation_l	knee_angle_l	knee_angle_l_beta	ankle_angle_l	subtalar_angle_l	mtp_angle_l	lumbar_extension	lumbar_bending	lumbar_rotation	arm_flex_r	arm_add_r	arm_rot_r	elbow_flex_r	pro_sup_r	wrist_flex_r	wrist_dev_r	arm_flex_l	arm_add_l	arm_rot_l	elbow_flex_l	pro_sup_l	wrist_flex_l	wrist_dev_l
5	5.883520691599594	4.465393462870319	63.11828639452876	0	0.9399999999999999	0	15.01123175773834	-6.280380021117454	0	27.54260011127778	0.4807090565019539	-3.548356399054652	0	0	15.01123175773834	-6.280380021117454	0	27.54260011127778	0.4807090565019539	-3.548356399054652	0	0	-5.46126879203056	1.015550185550096	-0.5540775559234292	19.34067995633709	14.31430226416568	-83.64186414405677	149.9889124086442	29.79257294986828	0	0	0	-2.673361496383452	0	32.30694303093961	29.79257294986828	0	0
5.01	5.894117349324548	4.49729008077253	63.12328075044074	0	0.9399999999999999	0	18.57981233319208	-7.373210084081074	0	31.3738143985611	0.5475763601644957	-4.066238775670296	0	0	18.57981233319208	-7.373210084081074	0	31.3738143985611	0.5475763601644957	-4.066238775670296	0	0	-5.490467012906386	1.000720471793955	-0.5423434530327439	-7.976123709796843	-24.99022616001169	-62.07843462227785	86.58779956732641	33.73202201504144	0	0	0	-3.423090979357411	0	38.0652002205377	33.73202201504144	0	0
5.02	5.923626333603122	4.519112865625342	63.12848950297291	0	0.9399999999999999	0	21.15077416318279	-7.98487353173273	0	34.33822466603682	0.5993150797118728	-4.329543053263709	0	0	21.15077416318279	-7.98487353173273	0	34.33822466603682	0.5993150797118728	-4.329543053263709	0	0	-5.525799221581257	1.020511078088777	-0.5454093916969888	1.958405009469159	-35.83588760244803	-21.7908868168268	46.16831896598605	35.99544943964913	0	0	0	-4.056133077016161	0	41.90808419338352	35.99544943964913	0	0
5.03	5.910649643985082	4.531468826911546	63.12332709357523	0	0.9399999999999999	0	21.77918743146326	-8.112942482992809	0	35.05141775031592	0.6117626472349965	-4.381409465532169	0	0	21.77918743146326	-8.112942482992809	0	35.05141775031592	0.6117626472349965	-4.381409465532169	0	0	-5.505343140569902	0.9625718600689345	-0.5492634258245612	6.537510886188194	-20.43717860628653	4.26316127207995	24.67840129407877	36.48437458364324	0	0	0	-4.221575483236407	0	42.82532252183987	36.48437458364324	0	0
5.04	5.921141016321932	4.540316934227262	63.13964284294809	0	0.9399999999999999	0	21.92583695277055	-8.141397020016667	0	35.21441633445554	0.6146075092043218	-4.392703245266557	0	0	21.92583695277055	-8.141397020016667	0	35.21441633445554	0.6146075092043218	-4.392703245266557	0	0	-5.523220971323221	0.9762659853306588	-0.5715257490170895	3.703610375240552	-5.863337899502493	19.74146821164725	16.3144657444249	36.59434371225405	0	0	0	-4.26067956452069	0	43.03853689228436	36.59434371225405	0	0
5.05	5.913344641977278	4.566408179208958	63.14849087320591	0	0.9399999999999999	0	22.08764588467765	-8.173233183327106	0	35.39166389275153	0.6177010626877075	-4.405372679679787	0	0	22.08764588467765	-8.173233183327106	0	35.39166389275153	0.6177010626877075	-4.405372679679787	0	0	-5.540165468138654	0.9457184746883018	-0.5834626117898971	5.458890498941915	-7.887580443070044	29.24355282694587	26.639263012821	36.71714653303273	0	0	0	-4.303368466259821	0	43.27445247398737	36.71714653303273	0	0
5.06	5.913150845025523	4.562007254177006	63.12910694322883	0	0.9399999999999999	0	22.99623340111285	-8.342452083422341	0	36.41712859895719	0.6355987981739926	-4.471593118594459	0	0	22.99623340111285	-8.342452083422341	0	36.41712859895719	0.6355987981739926	-4.471593118594459	0	0	-5.530718646580145	0.9472835588840801	-0.5711401840036673	9.486718272381919	-15.45998093743218	29.88048668888926	51.10167812576206	37.37626681414871	0	0	0	-4.550971592737217	0	44.58660586589542	37.37626681414871	0	0
5.07	5.950224913153448	4.583087236247898	63.14995322110411	0	0.9399999999999999	0	23.70689485180506	-8.470628535376822	0	37.21010480659387	0.6494388438872308	-4.521082429489091	0	0	23.70689485180506	-8.470628535376822	0	37.21010480659387	0.6494388438872308	-4.521082429489091	0	0	-5.5689244156185	0.9803026631059543	-0.6060265712804543	15.20631327247054	-24.20077345370296	33.60228055176732	79.83825722927794	37.8793981914031	0	0	0	-4.746890922605066	0	45.60951181384963	37.8793981914031	0	0
5.08	5.953696270057432	4.630272467685064	63.14682691477087	0	0.9399999999999999	0	23.92338471151172	-8.509002862192821	0	37.44625602055338	0.653560460103406	-4.535761608742603	0	0	23.92338471151172	-8.509002862192821	0	37.44625602055338	0.653560460103406	-4.535761608742603	0	0	-5.60034347621102	0.9359544910358257	-0.5840282594411738	17.07268318798077	-16.94693069968463	58.83609821145011	39.65030498130207	38.03085325503864	0	0	0	-4.806616246659861	0	45.92097402486782	38.03085325503864	0	0
5.09	5.974338341565287	4.653012644743835	63.13407282172172	0	0.9399999999999999	0	24.06614746897136	-8.535561013097595	0	37.59783030168848	0.656205930370557	-4.546050241157369	0	0	24.06614746897136	-8.535561013097595	0	37.59783030168848	0.656205930370557	-4.546050241157369	0	0	-5.617366636136951	0.9403514564491405	-0.5436925121282415	0.5675017304671585	-2.597011931543112	81.60870756459646	0.03517474118417816	38.13471266323126	0	0	0	-4.844955849528477	0	46.12759822512058	38.13471266323126	0	0
5.1	5.989440391425551	4.678197466752533	63.12717944942273	0	0.9399999999999999	0	24.16011930350675	-8.551750792371763	0	37.70027090755439	0.6579938562306549	-4.552177413398167	0	0	24.16011930350675	-8.551750792371763	0	37.70027090755439	0.6579938562306549	-4.552177413398167	0	0	-5.624316557617843	0.9612178692489585	-0.4286697357544826	-10.68868457735175	0.7792696055030954	88.83293596487708	0.01660863547845392	38.19904054653951	0	0	0	-4.871162130271597	0	46.2624265414303	38.19904054653951	0	0
5.11	5.995695181647395	4.717278971786373	63.12413955335897	0	0.9399999999999999	0	24.31330264569076	-8.577947082924204	0	37.86545363968138	0.6608768387737106	-4.562038365456159	0	0	24.31330264569076	-8.577947082924204	0	37.86545363968138	0.6608768387737106	-4.562038365456159	0	0	-5.649352306094675	1.070685146737389	-0.2278132582188337	-21.40859990847948	8.833261326671224	89.66202369079755	0.02035913195070245	38.30344048501358	0	0	0	-4.913782315780053	0	46.48226403019642	38.30344048501358	0	0
5.12	6.018637168813894	4.728924578973333	63.15952825680509	0	0.9399999999999999	0	26.52649370269058	-8.938635331768042	0	40.31239545422949	0.7035840300422996	-4.695631482316908	0	0	26.52649370269058	-8.938635331768042	0	40.31239545422949	0.7035840300422996	-4.695631482316908	0	0	-5.688136118810432	0.955754863167065	-0.5552560534300675	25.26181804891103	-18.4955998911668	77.87935714284761	110.4514388028459	39.75524964185567	0	0	0	-5.545328326086072	0	49.63806808294702	39.75524964185567	0	0
5.13	6.033168053352716	4.747601960553211	63.15300369367813	0	0.9399999999999999	0	27.23733849590518	-9.039163142485386	0	41.09426821521016	0.7172302840530711	-4.730766080510264	0	0	27.23733849590518	-9.039163142485386	0	41.09426821521016	0.7172302840530711	-4.730766080510264	0	0	-5.699797033986887	0.9420015821256289	-0.5558720340119634	5.259280697981511	-3.86824557892407	59.6022512095624	96.86180585498404	40.17487338549113	0	0	0	-5.758661621372948	0	50.64099599071218	40.17487338549113	0	0
5.14	6.035115066498902	4.759621033502118	63.1777485553669	0	0.9399999999999999	0	28.24963282222194	-9.178819967276516	0	42.19916528211448	0.7365143757661794	-4.778778137333534	0	0	28.24963282222194	-9.178819967276516	0	42.19916528211448	0.7365143757661794	-4.778778137333534	0	0	-5.715818918043388	0.9463925929219349	-0.576624301077689	-2.08606418566329	6.381433357858056	29.29376258252882	95.81510056130912	40.76299932156948	0	0	0	-6.063663711513542	0	52.06704416987462	40.76299932156948	0	0
5.15	6.054343486916734	4.768794036427166	63.16934218772784	0	0.9399999999999999	0	28.85127864932697	-9.25360889459729	0	42.84661499355865	0.7478145049719674	-4.803454613577648	0	0	28.85127864932697	-9.25360889459729	0	42.84661499355865	0.7478145049719674	-4.803454613577648	0	0	-5.719542971145408	0.950286655851699	-0.5700832403301379	-1.601865633144528	13.19269254552298	-4.586987484402495	106.9934516309286	41.08689364500892	0	0	0	-6.250296610005504	0	52.91043324417069	41.08689364500892	0	0
5.16	6.068322977783524	4.778535462048359	63.15514599108614	0	0.9399999999999999	0	29.01003634923328	-9.272079523997492	0	43.01315561630481	0.7507211871772098	-4.80938811737981	0	0	29.01003634923328	-9.272079523997492	0	43.01315561630481	0.7507211871772098	-4.80938811737981	0	0	-5.712085182089788	0.9569630740079834	-0.560538288711769	4.42642843163068	22.22945945460909	-45.55296071577908	129.8700065594883	41.16839712989241	0	0	0	-6.300186112999208	0	53.13254716711137	41.16839712989241	0	0
5.17	6.082270125809115	4.801624455350318	63.14703049798621	0	0.9399999999999999	0	29.36904737998898	-9.31309309478933	0	43.39067620212825	0.7573101643938867	-4.822474923576054	0	0	29.36904737998898	-9.31309309478933	0	43.39067620212825	0.7573101643938867	-4.822474923576054	0	0	-5.759152068307367	0.9514155486247031	-0.5596594127541896	-3.803021527074292	-14.47791951527391	-58.40441681968653	67.87028384031697	41.35021547442405	0	0	0	-6.413762417479817	0	53.6343181531829	41.35021547442405	0	0
5.18	6.106858324242382	4.826637899717698	63.14365820347645	0	0.9399999999999999	0	29.80424558156434	-9.364922221536089	0	43.81931719213332	0.7647913609784831	-4.839015800703867	0	0	29.80424558156434	-9.364922221536089	0	43.81931719213332	0.7647913609784831	-4.839015800703867	0	0	-5.77365986158298	0.9657430913859245	-0.5403183544074291	-6.960780893443492	-42.95527210288628	-28.22539843679181	0.01776140191277951	41.57911815393859	0	0	0	-6.546251104919438	0	54.2449292927412	41.57911815393859	0	0
5.19	6.116035513708925	4.85521045332522	63.15065696590477	0	0.9399999999999999	0	29.93919154347112	-9.378750016214529	0	43.96349642648757	0.7673077633309694	-4.843264455917807	0	0	29.93919154347112	-9.378750016214529	0	43.96349642648757	0.7673077633309694	-4.843264455917807	0	0	-5.79188359217981	0.9586183819800479	-0.5450360723250949	-23.58979283802221	-32.54278570430444	-24.09619717054546	0.004778006916747874	41.64211326613208	0	0	0	-6.590596483500723	0	54.43258805030763	41.64211326613208	0	0
5.2	6.124227635284302	4.876087067674571	63.15125724200372	0	0.9399999999999999	0	29.99371350473247	-9.384380905994412	0	44.02078243672548	0.7683075928249521	-4.844994800582942	0	0	29.99371350473247	-9.384380905994412	0	44.02078243672548	0.7683075928249521	-4.844994800582942	0	0	-5.801957064856176	0.940671851468594	-0.5503019213406195	-34.7577840568196	-18.47469803098244	-27.43909119463011	0.003293478674447817	41.66774774394116	0	0	0	-6.60838375475667	0	54.50846973523252	41.66774774394116	0	0
5.21	6.145232573981362	4.890870203576971	63.14876911364822	0	0.9399999999999999	0	30.30719312411563	-9.420667623740847	0	44.31113426223574	0.7733751881692821	-4.856262233541074	0	0	30.30719312411563	-9.420667623740847	0	44.31113426223574	0.7733751881692821	-4.856262233541074	0	0	-5.825607895365562	0.9671606548695402	-0.5496173026256695	-30.40931868211688	-19.68134055186132	-27.05988503280801	0.003679545842132617	41.83053466140461	0	0	0	-6.701658367589995	0	54.94810994745249	41.83053466140461	0	0
